<svg xmlns="http://www.w3.org/2000/svg" viewBox="0 0 150 150" width="100%" height="100%">
  <defs>
    <linearGradient id="grad-addon_teddy_svg" x1="0%" y1="0%" x2="100%" y2="100%">
      <stop offset="0%" style="stop-color:#FFFDE7;stop-opacity:1" />
      <stop offset="100%" style="stop-color:#FFF9C4;stop-opacity:1" />
    </linearGradient>
    <filter id="shadow" x="-10%" y="-10%" width="120%" height="120%">
      <feDropShadow dx="0" dy="4" stdDeviation="4" flood-opacity="0.1" flood-color="#000"/>
    </filter>
  </defs>
  
  <!-- Background -->
  <rect width="100%" height="100%" fill="url(#grad-addon_teddy_svg)" />
  
  <!-- Vector Floral Details -->
  <g opacity="0.15">
    <circle cx="75" cy="75" r="50" fill="none" stroke="#FFFFFF" stroke-width="2" stroke-dasharray="10 15" />
    <circle cx="75" cy="75" r="37" fill="none" stroke="#FFFFFF" stroke-width="1" />
  </g>

  <!-- Stylized Icon / Flower Representation -->
  <g transform="translate(75, 60)" filter="url(#shadow)">
    <!-- Flower Petals -->
    <path d="M0,-24 C10,-40 -10,-40 0,-24 Z" fill="#FBC02D" transform="rotate(0)" />
    <path d="M0,-24 C10,-40 -10,-40 0,-24 Z" fill="#FBC02D" transform="rotate(45)" />
    <path d="M0,-24 C10,-40 -10,-40 0,-24 Z" fill="#FBC02D" transform="rotate(90)" />
    <path d="M0,-24 C10,-40 -10,-40 0,-24 Z" fill="#FBC02D" transform="rotate(135)" />
    <path d="M0,-24 C10,-40 -10,-40 0,-24 Z" fill="#FBC02D" transform="rotate(180)" />
    <path d="M0,-24 C10,-40 -10,-40 0,-24 Z" fill="#FBC02D" transform="rotate(225)" />
    <path d="M0,-24 C10,-40 -10,-40 0,-24 Z" fill="#FBC02D" transform="rotate(270)" />
    <path d="M0,-24 C10,-40 -10,-40 0,-24 Z" fill="#FBC02D" transform="rotate(315)" />
    
    <!-- Flower Center -->
    <circle cx="0" cy="0" r="8" fill="#FFF8E7" stroke="#FBC02D" stroke-width="2" />
  </g>
  
  <!-- Text Label -->
  <text x="50%" y="120" font-family="'Outfit', sans-serif" font-size="14" font-weight="700" fill="#1F1F1F" text-anchor="middle">Teddy Bear</text>
  <text x="50%" y="138" font-family="'Outfit', sans-serif" font-size="10" font-weight="500" fill="#777777" text-anchor="middle" letter-spacing="1">PLUSHIE</text>
</svg>
